# xmcd CD database file
#
# Track frame offsets:
#	150
#	17897
#	26712
#	46460
#	60732
#	75437
#	92897
#	103262
#	126727
#	134965
#	159950
#
# Disc length: 2368 seconds
#
# Revision: 1
# Processed by: cddbd v1.4PL0 Copyright (c) Steve Scherf et al.
# Submitted via: CDex 1.51
#
DISCID=9d093e0b
DTITLE=Sceamin' Jay Hawkins - Real Life
DYEAR=1986
DGENRE=Blues
TTITLE0=Deep in love
TTITLE1=Your kind of love
TTITLE2=Get down France
TTITLE3=All night
TTITLE4=Serving time
TTITLE5=Feast of the mau-mau
TTITLE6=I feel alright
TTITLE7=Poor folks
TTITLE8=Mountain jive
TTITLE9=Constipation blues
TTITLE10=Alligator wine
EXTD=YEAR: 1986
EXTT0=
EXTT1=
EXTT2=
EXTT3=
EXTT4=
EXTT5=
EXTT6=
EXTT7=
EXTT8=
EXTT9=
EXTT10=
PLAYORDER=
